<svg xmlns="http://www.w3.org/2000/svg" viewBox="0 0 500 500">
  <path d="M466.46 130.63a248.92 248.92 0 00-90.98-90.99Q318.02 6.11 250 6.12T124.51 39.64a248.9 248.9 0 00-90.98 90.99Q0 188.08 0 256.1q0 81.71 47.69 146.97t123.2 90.33q8.8 1.63 13.02-2.28a12.73 12.73 0 004.23-9.76l-.16-17.58q-.16-16.6-.16-28.97l-7.5 1.3a95.46 95.46 0 01-18.06 1.14 137.6 137.6 0 01-22.62-2.27 50.54 50.54 0 01-21.81-9.76 41.3 41.3 0 01-14.32-20.02l-3.26-7.49A81.32 81.32 0 0090 381.12q-7-9.12-14.16-12.37l-2.28-1.63a23.89 23.89 0 01-4.23-3.91 17.87 17.87 0 01-2.92-4.56q-.98-2.28 1.62-3.75c1.74-.98 4.88-1.46 9.44-1.46l6.51.98q6.51 1.3 16.11 7.8a52.53 52.53 0 0115.79 16.93q7.49 13.35 18.07 20.35t21.32 7a92.63 92.63 0 0018.55-1.62 64.74 64.74 0 0014.65-4.89q2.93-21.82 15.94-33.53a222.88 222.88 0 01-33.36-5.86 132.92 132.92 0 01-30.6-12.7 87.63 87.63 0 01-26.2-21.8q-10.42-13.03-17.1-34.19t-6.66-48.83q0-39.4 25.72-67.06-12.05-29.62 2.28-66.4 9.44-2.93 27.99 4.4t27.18 12.53q8.63 5.2 13.84 8.79a235.09 235.09 0 01125 0l12.36-7.81a175.1 175.1 0 0129.95-14.33q17.26-6.5 26.38-3.58 14.64 36.79 2.6 66.4 25.71 27.68 25.72 67.06 0 27.67-6.68 48.99t-17.24 34.18a91.02 91.02 0 01-26.37 21.65 133.1 133.1 0 01-30.6 12.7 222.54 222.54 0 01-33.37 5.87q16.92 14.64 16.93 46.22v68.67a12.96 12.96 0 004.07 9.77q4.07 3.9 12.85 2.27 75.53-25.06 123.22-90.33T500 256.1q-.02-68.02-33.54-125.47z" fill="hsl(0, 100%, 22%)"/>
</svg>
