<svg data-name="TIBET logo" xmlns="http://www.w3.org/2000/svg" viewBox="0 0 201.69 201.69">
  <path d="M137.09 2.07c-5.17 6.3-11.92 9.3-29.13 12.93-16.12 3.41-21.89 5.02-28.23 7.99q-16.47 7.7-23.12 23.73c-1.5 3.63-2.1 4.64-2.63 4.64a31.3 31.3 0 01-3.26-4.23 106.36 106.36 0 00-12.1-14.62c-7.1-7.31-12.23-11.02-18.15-13.09-3.86-1.3-8.7-1.5-10.57-.33-1.1.67-4.8 5.8-5.81 8.06-.72 1.53 0 1.95 4.08 2.43 14.5 1.77 27.4 8.51 40.45 21.11 3.71 3.64 4.72 4.42 5.66 4.42s2.06-.93 7.05-5.92c11.36-11.28 20.32-15.93 40.63-21.07 13.95-3.52 19.72-5.8 25.42-10.12a45.78 45.78 0 0012.48-15.03c1.65-3.49-.18-4.05-2.77-.9zm50.12 59.98c-.9 1.35-.64 10.08.34 11.54l.63 1.02h5.63c5.5 0 5.58 0 6.33-.94.94-1.24 1.92-5.47 1.92-8.36 0-1.69-.2-2.48-.8-3.22l-.74-.98h-6.34c-6.33 0-6.37 0-6.97.93zm-176.6.3a26.43 26.43 0 00-1.99 4.9c-1.5 4.7-1.38 5.18 1.24 5.48 2.81.34 2.85.45 1.09 6.07a131.66 131.66 0 00-5.66 28.04l-.64 6.41-1.61 1.58a15.2 15.2 0 00-2.33 2.92c-.82 1.61-.97 4.91-.22 5.48.22.22 3.48.48 7.2.6 26.05.9 47.23 7.72 63.35 20.39 1.46 1.16 5.51 5.02 9.04 8.58 6.22 6.34 6.44 6.53 7.94 6.53 1.88 0 2.7-.98 2.7-3.15 0-.79-1.61-19.68-3.56-41.95L83.6 73.74l.94-2.02c1.87-3.94 2.1-7.95.52-9.52-.71-.71-1.57-.71-37.22-.71H11.28zm60.58 11.32c.6.6 1.8 6.11 6 27.18 5.7 28.75 9.3 47.42 9.67 50.5.19 1.65.11 1.98-.37 1.98-.34 0-2.25-2.06-4.24-4.6-4.57-5.74-13.9-15.08-18.26-18.34-13.6-10.12-29.91-15.52-49.14-16.3-6.64-.27-7.5-.57-7.16-2.63a114.93 114.93 0 0111.36-34.04c1.38-2.62 2.06-3.52 3.07-4.05 1.2-.6 3-.63 24.82-.56 22.94.1 23.54.1 24.25.86zm33.25-11.63c-.64.68-1.8 3.68-2.7 7.05-.79 2.89-.45 3.64 1.54 3.64 1.68 0 2.43.33 2.43 1.08a23.75 23.75 0 01-1.5 4.02c-3.07 7-5.02 17.46-5.5 29.39l-.23 5.8-1.58 1.5a13.5 13.5 0 00-2.4 3.08c-.86 1.77-1.05 4.95-.34 5.67.3.3 1.8.44 4.24.44 12.6 0 29.13 2.7 39.36 6.45a90.75 90.75 0 0118.3 9.49 57.76 57.76 0 0118.06 21.74 69.49 69.49 0 016.34 18.44 93.28 93.28 0 012.02 15.6c.3 5.17.64 6.26 1.95 6.26 1.5 0 1.62-.75 1.39-9.3q-1.01-36.27-20.06-56.38c-13.04-13.69-31.48-20.96-55.55-21.93a52.78 52.78 0 01-6.64-.53c-1.12-.41-1.38-2.2-.9-6.22a72.06 72.06 0 016.6-23.17c3.15-6.4 6.38-10.2 9.53-11.06.86-.22 11.84-.37 29.87-.37 26.92 0 28.57-.04 29.13-.68 1.16-1.27 1.76-3.37 1.76-6.26 0-4.8 4.43-4.3-38.01-4.3-31.98 0-36.59.07-37.11.55z" fill="#720000"/>
</svg>
