<?xml version="1.0" encoding="UTF-8" standalone="no"?>
<!-- Created with Inkscape (http://www.inkscape.org/) -->

<svg
   xmlns:dc="http://purl.org/dc/elements/1.1/"
   xmlns:cc="http://creativecommons.org/ns#"
   xmlns:rdf="http://www.w3.org/1999/02/22-rdf-syntax-ns#"
   xmlns:svg="http://www.w3.org/2000/svg"
   xmlns="http://www.w3.org/2000/svg"
   version="1.1"
   width="1260"
   height="1260"
   id="svg2"
   xml:space="preserve"><metadata
     id="metadata8"><rdf:RDF><cc:Work
         rdf:about=""><dc:format>image/svg+xml</dc:format><dc:type
           rdf:resource="http://purl.org/dc/dcmitype/StillImage" /><dc:title></dc:title></cc:Work></rdf:RDF></metadata><defs
     id="defs6"><clipPath
       id="clipPath16"><path
         d="m 0,1008 1008,0 L 1008,0 0,0 0,1008 z"
         id="path18" /></clipPath></defs><g
     transform="matrix(1.25,0,0,-1.25,0,1260)"
     id="g10"><g
       id="g12"><g
         clip-path="url(#clipPath16)"
         id="g14"><path
           d="m 130.714,667.152 c -5.983,0 -8.218,-0.455 -10.053,-5.552 -3.16,-8.776 -10.578,-32.427 -10.943,-33.564 -0.513,-1.601 -0.575,-5.074 3.906,-5.074 l 15.697,0 c 1.47,0 4.934,-0.308 3.203,-4.857 C 127.5,605.672 103.048,541.531 97.979,446.2 79.095,441.471 71.707,408.035 82.077,408.035 c 242.508,0 318.867,-108.203 356.33,-147.195 8.094,-7.264 20.579,-5.243 19.167,9.685 -0.345,3.65 -30.974,352.437 -30.974,352.437 8.804,0.913 19.507,44.322 1.452,44.19 l -297.338,0 z"
           id="path20"
           style="fill:black;fill-opacity:1;fill-rule:nonzero;stroke:none" /><path
           d="m 178.967,622.962 188.827,0.032 c 0,0 12.164,0.953 14.278,-9.343 8.717,-42.433 61.699,-304.955 65.055,-338.713 0.416,-4.19 -1.673,-6.914 -7.328,0.208 -61.147,81.878 -139.853,171.054 -333.86,171.054 2.454,59.973 37.554,140.031 56.237,170.39 5.367,8.122 16.791,6.372 16.791,6.372"
           id="path22"
           style="fill:#FFFFFF;fill-opacity:1;fill-rule:nonzero;stroke:none" /><path
           d="m 860.096,85.763 c -0.016,-11.836 -10.905,-9.366 -10.969,-0.058 -3.537,168.925 -81.05,322.33 -371.745,322.33 -10.368,0 -2.981,33.436 15.901,38.165 2.735,131.918 29.521,159.472 34.548,171.905 1.729,4.549 -1.734,4.857 -3.206,4.857 l -15.695,0 c -4.481,0 -4.419,3.473 -3.907,5.074 0.366,1.137 7.784,24.788 10.945,33.564 1.834,5.097 4.069,5.552 10.053,5.552 l 297.336,0 c 18.056,0.132 7.352,-43.277 -1.452,-44.19 l -238.785,0 c -37.114,0 -76.15,-95.452 -76.759,-170.024 -0.105,-4.57 2.528,-7.021 5.978,-7.03 289.125,-0.806 347.972,-192.103 347.757,-360.145"
           id="path24"
           style="fill:black;fill-opacity:1;fill-rule:nonzero;stroke:none" /><path
           d="m 872.076,614.435 c 6.709,-0.159 43.947,-0.334 43.947,-0.334 7.78,0.806 19.531,55.095 3.573,54.979 0,0 -37.121,-0.037 -48.527,0 -11.405,0.037 -5.704,-54.486 1.007,-54.645"
           id="path26"
           style="fill:black;fill-opacity:1;fill-rule:nonzero;stroke:none" /><path
           d="m 296.101,702.342 c -52.448,58.117 -126.106,103.012 -199.536,104.021 -4.448,2.961 -2.637,4.571 -0.023,8.794 5.235,8.661 17.823,29.977 24.477,32.566 3.498,1.36 4.948,1.662 12.24,1.765 81.154,1.242 167.071,-139.43 167.071,-139.43 2.761,-4.558 7.597,-4.005 9.368,0.13 60.844,193.344 287.904,114.766 352.021,215.038 1.561,1.732 9.765,6.663 3.855,-6.749 -80.025,-151.855 -219.346,-58.331 -351.568,-216.501 -4.855,-6.169 -11.467,-5.871 -17.905,0.366"
           id="path28"
           style="fill:black;fill-opacity:1;fill-rule:nonzero;stroke:none" /></g></g></g></svg>
