<?xml version="1.0" standalone="no"?>
<!DOCTYPE svg PUBLIC "-//W3C//DTD SVG 20010904//EN"
 "http://www.w3.org/TR/2001/REC-SVG-20010904/DTD/svg10.dtd">
<svg version="1.0" xmlns="http://www.w3.org/2000/svg"
 width="659.000000pt" height="645.000000pt" viewBox="0 0 659.000000 645.000000"
 preserveAspectRatio="xMidYMid meet">
<metadata>
Created by potrace 1.11, written by Peter Selinger 2001-2013
</metadata>
<g transform="translate(0.000000,645.000000) scale(0.100000,-0.100000)"
fill="#000000" stroke="none">
<path d="M4257 5865 c-138 -168 -318 -248 -777 -345 -430 -91 -584 -134 -753
-213 -293 -137 -498 -348 -617 -633 -40 -97 -56 -124 -70 -124 -4 0 -44 51
-87 113 -118 166 -194 258 -323 390 -189 195 -326 294 -484 349 -103 35 -232
40 -282 9 -29 -18 -128 -155 -155 -215 -19 -41 0 -52 109 -65 387 -47 731
-227 1079 -563 99 -97 126 -118 151 -118 25 0 55 25 188 158 303 301 542 425
1084 562 372 94 526 155 678 270 130 98 264 259 333 401 44 93 -5 108 -74 24z"/>
<path d="M5594 4265 c-24 -36 -17 -269 9 -308 l17 -27 150 0 c147 0 149 0 169
25 25 33 51 146 51 223 0 45 -5 66 -21 86 l-20 26 -169 0 c-169 0 -170 0 -186
-25z"/>
<path d="M883 4257 c-10 -13 -34 -72 -53 -131 -40 -125 -37 -138 33 -146 75
-9 76 -12 29 -162 -79 -250 -120 -456 -151 -748 l-17 -171 -43 -42 c-23 -22
-51 -58 -62 -78 -22 -43 -26 -131 -6 -146 6 -6 93 -13 192 -16 695 -24 1260
-206 1690 -544 39 -31 147 -134 241 -229 166 -169 172 -174 212 -174 50 0 72
26 72 84 0 21 -43 525 -95 1119 l-95 1080 25 54 c50 105 56 212 14 254 -19 19
-42 19 -993 19 l-975 0 -18 -23z m1616 -302 c16 -16 48 -163 160 -725 152
-767 248 -1265 258 -1347 5 -44 3 -53 -10 -53 -9 0 -60 55 -113 123 -122 153
-371 402 -487 489 -363 270 -798 414 -1311 435 -177 7 -200 15 -191 70 48 303
160 637 303 908 37 70 55 94 82 108 32 16 80 17 662 15 612 -3 628 -3 647 -23z"/>
<path d="M3386 4265 c-17 -18 -48 -98 -72 -188 -21 -77 -12 -97 41 -97 45 0
65 -9 65 -29 0 -9 -18 -57 -40 -107 -82 -187 -134 -466 -147 -784 l-6 -155
-42 -40 c-24 -22 -52 -59 -64 -82 -23 -47 -28 -132 -9 -151 8 -8 48 -12 113
-12 336 0 777 -72 1050 -172 154 -56 384 -176 488 -253 214 -160 364 -340 482
-580 86 -176 134 -314 169 -492 35 -180 46 -261 54 -416 8 -138 17 -167 52
-167 40 0 43 20 37 248 -18 645 -196 1147 -535 1504 -348 365 -840 559 -1482
585 -85 3 -165 10 -177 14 -30 11 -37 59 -24 166 31 241 87 436 176 618 84
171 170 272 254 295 23 6 316 10 797 10 718 0 762 1 777 18 31 34 47 90 47
167 0 128 118 115 -1014 115 -853 0 -976 -2 -990 -15z"/>
</g>
</svg>
