<?xml version="1.0"?>
<svg xmlns="http://www.w3.org/2000/svg" version="1.1" viewBox="0 0 40 40">
	<path fill="none" stroke="#FFFFFF" d="M5.896,5.333V21.25H29.313000000000002V5.333H5.896ZM26.312,18.25H8.896V8.334H26.313000000000002V18.25L26.312,18.25ZM4.896,9.542H1.687V25.459H25.104000000000003V22.25H4.896V9.542Z" stroke-width="3" stroke-linejoin="round" opacity="0" transform="matrix(1,0,0,1,4,4)" style="stroke-linejoin: round; opacity: 0;"/>
	<path fill="#000000" stroke="none" d="M5.896,5.333V21.25H29.313000000000002V5.333H5.896ZM26.312,18.25H8.896V8.334H26.313000000000002V18.25L26.312,18.25ZM4.896,9.542H1.687V25.459H25.104000000000003V22.25H4.896V9.542Z" transform="matrix(1,0,0,1,4,4)" style="opacity: 1; fill-opacity: 1;" opacity="1" fill-opacity="1"/>
	<rect x="0" y="0" width="32" height="32" r="0" rx="0" ry="0" fill="#000000" stroke="#000" opacity="0" style="opacity: 0;"/>
</svg>
