<svg fill="#000000" height="24" viewBox="0 0 24 24" width="24" xmlns="http://www.w3.org/2000/svg" xmlns:xlink="http://www.w3.org/1999/xlink">
    <defs>
        <path d="M0 0h24v24H0z" id="a"/>
    </defs>
    <clipPath id="b">
        <use overflow="visible" xlink:href="#a"/>
    </clipPath>
    <path clip-path="url(#b)" d="M21 10c-1.1 0-2 .9-2 2v3H5v-3c0-1.1-.9-2-2-2s-2 .9-2 2v5c0 1.1.9 2 2 2h18c1.1 0 2-.9 2-2v-5c0-1.1-.9-2-2-2zm-3-5H6c-1.1 0-2 .9-2 2v2.15c1.16.41 2 1.51 2 2.82V14h12v-2.03c0-1.3.84-2.4 2-2.82V7c0-1.1-.9-2-2-2z" fill="#010101"/>
</svg>